<svg width="155" height="39" viewBox="0 0 155 39" fill="none" xmlns="http://www.w3.org/2000/svg">
<g clip-path="url(#clip0_398_742)">
<mask id="mask0_398_742" style="mask-type:luminance" maskUnits="userSpaceOnUse" x="0" y="0" width="155" height="39">
<path d="M154.616 0.614258H0.615723V38.6143H154.616V0.614258Z" fill="white"/>
</mask>
<g mask="url(#mask0_398_742)">
<path d="M55.9042 18.7408V21.6381H59.8331V23.4743H55.9042V26.542H60.3389V28.4277H53.559V16.8551H60.3389V18.7408H55.9042Z" fill="#100F0D"/>
<path d="M61.8583 23.8097C61.8583 22.8833 62.0443 22.0601 62.4195 21.3412C62.7933 20.6238 63.3044 20.0713 63.9531 19.6864C64.6008 19.2988 65.3202 19.1037 66.1095 19.1037C66.7123 19.1037 67.2874 19.2342 67.8323 19.494C68.3796 19.7551 68.8171 20.0988 69.1436 20.5276V16.1734H71.5165V28.4277H69.1436V27.0698C68.8505 27.5247 68.4408 27.889 67.9155 28.1638C67.393 28.4387 66.7845 28.5762 66.0927 28.5762C65.3149 28.5762 64.6008 28.3783 63.9531 27.9824C63.3044 27.5839 62.7933 27.0231 62.4195 26.3002C62.0443 25.5786 61.8583 24.7484 61.8583 23.8097ZM69.1603 23.8427C69.1603 23.2792 69.0465 22.7954 68.8213 22.3913C68.5991 21.9886 68.296 21.6807 67.9155 21.4677C67.5378 21.2519 67.132 21.1433 66.6984 21.1433C66.261 21.1433 65.8594 21.2478 65.4927 21.4567C65.1257 21.6656 64.827 21.9721 64.5979 22.3748C64.3674 22.7789 64.2533 23.2572 64.2533 23.8097C64.2533 24.3594 64.3674 24.8419 64.5979 25.2556C64.827 25.6707 65.1271 25.9895 65.4981 26.2122C65.8719 26.4321 66.272 26.5421 66.6984 26.5421C67.132 26.5421 67.5378 26.4348 67.9155 26.2177C68.296 26.0019 68.5991 25.6926 68.8213 25.2886C69.0465 24.8859 69.1603 24.4034 69.1603 23.8427Z" fill="#100F0D"/>
<path d="M82.565 19.2521V28.4277H80.2035V27.2677C79.9033 27.6677 79.5099 27.981 79.0252 28.2078C78.539 28.4304 78.0112 28.5432 77.4414 28.5432C76.7191 28.5432 76.0771 28.392 75.5187 28.0869C74.9589 27.7831 74.5197 27.3364 74.2017 26.7454C73.8863 26.1558 73.7294 25.4521 73.7294 24.6343V19.2521H76.069V24.3045C76.069 25.0343 76.2521 25.595 76.6192 25.9867C76.9887 26.3798 77.493 26.575 78.1307 26.575C78.778 26.575 79.2866 26.3798 79.6533 25.9867C80.02 25.595 80.2035 25.0343 80.2035 24.3045V19.2521H82.565Z" fill="#100F0D"/>
<path d="M88.4224 28.5762C87.6666 28.5762 86.9855 28.4415 86.3827 28.1748C85.7784 27.9041 85.3004 27.5371 84.949 27.0753C84.6001 26.6107 84.407 26.0953 84.3711 25.5305H86.733C86.7775 25.8823 86.9525 26.1764 87.2608 26.4101C87.5677 26.641 87.9497 26.7564 88.4057 26.7564C88.8527 26.7564 89.2016 26.6685 89.4502 26.4925C89.7017 26.3139 89.8283 26.0857 89.8283 25.8108C89.8283 25.514 89.674 25.2913 89.367 25.1401C89.0626 24.9903 88.575 24.8268 87.9053 24.6508C87.2121 24.4859 86.6452 24.3154 86.2049 24.1395C85.7631 23.9636 85.384 23.6942 85.0657 23.3314C84.7502 22.9658 84.5934 22.4723 84.5934 21.8525C84.5934 21.3467 84.7392 20.8849 85.0323 20.4671C85.3282 20.0465 85.7521 19.7139 86.3048 19.472C86.8564 19.2273 87.5066 19.1036 88.2556 19.1036C89.3585 19.1036 90.2409 19.3772 90.9006 19.9228C91.5593 20.4698 91.9231 21.2065 91.99 22.1329H89.7447C89.7117 21.77 89.5573 21.4828 89.2834 21.2697C89.0128 21.054 88.6472 20.9454 88.1887 20.9454C87.7666 20.9454 87.4401 21.0224 87.2107 21.1763C86.9802 21.3302 86.8664 21.5446 86.8664 21.8195C86.8664 22.1315 87.0218 22.3679 87.333 22.5287C87.6471 22.6868 88.1347 22.8476 88.7944 23.0125C89.4613 23.1774 90.0115 23.3506 90.445 23.5293C90.8814 23.7052 91.2591 23.9787 91.5789 24.3484C91.8968 24.7154 92.0622 25.2033 92.0732 25.8108C92.0732 26.3427 91.9246 26.8196 91.6287 27.2402C91.3313 27.658 90.9077 27.9865 90.3561 28.2243C89.8031 28.458 89.1586 28.5762 88.4224 28.5762Z" fill="#100F0D"/>
<path d="M96.7277 21.1598V25.5965C96.7277 25.9043 96.8013 26.1283 96.95 26.2672C97.1015 26.4073 97.3558 26.4761 97.7114 26.4761H98.8005V28.4277H97.328C95.3523 28.4277 94.3658 27.4794 94.3658 25.58V21.1598H93.26V19.2521H94.3658V16.9871H96.7277V19.2521H98.8005V21.1598H96.7277Z" fill="#100F0D"/>
<path d="M102.839 20.676C103.139 20.1922 103.531 19.8129 104.017 19.538C104.502 19.2604 105.058 19.1202 105.684 19.1202V21.5557H105.062C104.324 21.5557 103.768 21.7288 103.395 22.0724C103.024 22.4133 102.839 23.0098 102.839 23.8592V28.4277H100.494V19.2521H102.839V20.676Z" fill="#100F0D"/>
<path d="M116.009 19.2521V28.4277H113.647V27.2677C113.347 27.6677 112.954 27.981 112.469 28.2078C111.982 28.4304 111.454 28.5432 110.885 28.5432C110.162 28.5432 109.521 28.392 108.962 28.0869C108.402 27.7831 107.963 27.3364 107.645 26.7454C107.33 26.1558 107.173 25.4521 107.173 24.6343V19.2521H109.512V24.3045C109.512 25.0343 109.696 25.595 110.062 25.9867C110.432 26.3798 110.936 26.575 111.574 26.575C112.221 26.575 112.73 26.3798 113.097 25.9867C113.463 25.595 113.647 25.0343 113.647 24.3045V19.2521H116.009Z" fill="#100F0D"/>
<path d="M117.714 23.8427C117.714 22.8943 117.909 22.0642 118.298 21.3522C118.69 20.6375 119.233 20.085 119.926 19.6919C120.618 19.3002 121.411 19.1036 122.304 19.1036C123.452 19.1036 124.403 19.3881 125.155 19.9558C125.911 20.5248 126.417 21.3233 126.673 22.3528H124.144C124.011 21.9542 123.784 21.6422 123.466 21.4182C123.147 21.1914 122.755 21.0773 122.288 21.0773C121.617 21.0773 121.085 21.3178 120.693 21.7975C120.304 22.2786 120.109 22.9603 120.109 23.8427C120.109 24.7154 120.304 25.3916 120.693 25.8713C121.085 26.3523 121.617 26.5915 122.288 26.5915C123.236 26.5915 123.855 26.1723 124.144 25.3325H126.673C126.417 26.3262 125.908 27.1165 125.15 27.702C124.39 28.2848 123.441 28.5762 122.304 28.5762C121.411 28.5762 120.618 28.381 119.926 27.9879C119.233 27.5962 118.69 27.045 118.298 26.3331C117.909 25.6225 117.714 24.7924 117.714 23.8427Z" fill="#100F0D"/>
<path d="M131.125 21.1598V25.5965C131.125 25.9043 131.199 26.1283 131.347 26.2672C131.499 26.4073 131.753 26.4761 132.109 26.4761H133.198V28.4277H131.726C129.75 28.4277 128.764 27.4794 128.764 25.58V21.1598H127.658V19.2521H128.764V16.9871H131.125V19.2521H133.198V21.1598H131.125Z" fill="#100F0D"/>
<path d="M139.009 28.5762C138.116 28.5762 137.311 28.381 136.597 27.9879C135.882 27.5962 135.32 27.0423 134.914 26.3276C134.505 25.6102 134.302 24.7814 134.302 23.8427C134.302 22.9053 134.511 22.0765 134.93 21.3577C135.348 20.6402 135.921 20.085 136.647 19.6919C137.373 19.3002 138.182 19.1036 139.076 19.1036C139.968 19.1036 140.776 19.3002 141.499 19.6919C142.224 20.085 142.796 20.6402 143.216 21.3577C143.634 22.0765 143.844 22.9053 143.844 23.8427C143.844 24.7814 143.628 25.6102 143.199 26.3276C142.768 27.0423 142.189 27.5962 141.46 27.9879C140.729 28.381 139.912 28.5762 139.009 28.5762ZM139.009 26.5585C139.432 26.5585 139.829 26.4568 140.204 26.2506C140.577 26.0458 140.876 25.7394 141.099 25.3325C141.324 24.9229 141.437 24.4254 141.437 23.8427C141.437 22.9713 141.206 22.3006 140.743 21.8305C140.279 21.3618 139.712 21.1268 139.042 21.1268C138.371 21.1268 137.81 21.3618 137.359 21.8305C136.906 22.3006 136.681 22.9713 136.681 23.8427C136.681 24.7154 136.9 25.3861 137.342 25.8548C137.782 26.3249 138.338 26.5585 139.009 26.5585Z" fill="#100F0D"/>
<path d="M147.915 20.676C148.216 20.1922 148.607 19.8129 149.094 19.538C149.579 19.2604 150.134 19.1202 150.761 19.1202V21.5557H150.138C149.401 21.5557 148.845 21.7288 148.471 22.0724C148.1 22.4133 147.915 23.0098 147.915 23.8592V28.4277H145.57V19.2521H147.915V20.676Z" fill="#100F0D"/>
<path d="M23.4793 10.73H26.0327L28.4835 21.1564C35.5549 19.0494 42.6264 16.941 49.6979 14.8327L25.2117 6.34973L0.472595 15.0759C7.32042 17.1128 14.1668 19.1483 21.0133 21.1852L23.4793 10.73Z" fill="#212A55"/>
<path d="M39.0936 20.0788V26.9811C39.0936 28.2167 37.5181 29.4757 36.4621 30.064C33.5169 31.7078 29.1517 32.5242 24.7588 32.5792H24.7449C20.3506 32.5242 15.9868 31.7078 13.0415 30.064C11.9857 29.4757 10.4088 28.2167 10.4088 26.9811V20.0788L20.6034 22.8964L20.2088 24.5718C20.0338 25.3098 20.3547 26.0727 21.0216 26.5138L21.926 27.1103L24.7518 28.9754L27.5776 27.1103L28.4807 26.5138C29.1489 26.0727 29.4685 25.3098 29.2948 24.5718L28.9002 22.8964L39.0936 20.0788Z" fill="#7DCA33"/>
</g>
</g>
<defs>
<clipPath id="clip0_398_742">
<rect width="154" height="38" fill="white" transform="translate(0.615723 0.614258)"/>
</clipPath>
</defs>
</svg>
